<?xml version="1.0" encoding="UTF-8" standalone="no"?>
<!-- Creator: CorelDRAW -->

<svg
   xmlns:dc="http://purl.org/dc/elements/1.1/"
   xmlns:cc="http://creativecommons.org/ns#"
   xmlns:rdf="http://www.w3.org/1999/02/22-rdf-syntax-ns#"
   xmlns:svg="http://www.w3.org/2000/svg"
   xmlns="http://www.w3.org/2000/svg"
   xmlns:xlink="http://www.w3.org/1999/xlink"
   xmlns:sodipodi="http://sodipodi.sourceforge.net/DTD/sodipodi-0.dtd"
   xmlns:inkscape="http://www.inkscape.org/namespaces/inkscape"
   xml:space="preserve"
   width="384"
   height="384"
   style="fill-rule:evenodd"
   viewBox="0 0 103.71962 103.71915"
   id="svg3219"
   version="1.1"
   inkscape:version="0.48.0 r9654"
   sodipodi:docname="qt4tesseract.svg"
   inkscape:export-filename="c:\usr\projects\git\qt4-tesseract\resources\images\appicon.png"
   inkscape:export-xdpi="11.25"
   inkscape:export-ydpi="11.25"><metadata
   id="metadata3365"><rdf:RDF><cc:Work
       rdf:about=""><dc:format>image/svg+xml</dc:format><dc:type
         rdf:resource="http://purl.org/dc/dcmitype/StillImage" /><dc:title></dc:title></cc:Work></rdf:RDF></metadata><sodipodi:namedview
   pagecolor="#ffffff"
   bordercolor="#666666"
   borderopacity="1"
   objecttolerance="10"
   gridtolerance="10"
   guidetolerance="10"
   inkscape:pageopacity="0"
   inkscape:pageshadow="2"
   inkscape:window-width="1920"
   inkscape:window-height="1153"
   id="namedview3363"
   showgrid="false"
   inkscape:zoom="1.953125"
   inkscape:cx="100.1138"
   inkscape:cy="173.54374"
   inkscape:window-x="-4"
   inkscape:window-y="-4"
   inkscape:window-maximized="1"
   inkscape:current-layer="svg3219" />
 <defs
   id="defs3221">
  <style
   type="text/css"
   id="style3223">
   
    .str7 {stroke:black;stroke-width:0.0729279}
    .str6 {stroke:black;stroke-width:0.124418}
    .str12 {stroke:black;stroke-width:0.143559}
    .str5 {stroke:black;stroke-width:0.147387}
    .str11 {stroke:black;stroke-width:0.1627}
    .str4 {stroke:black;stroke-width:0.170357}
    .str10 {stroke:black;stroke-width:0.181841}
    .str3 {stroke:black;stroke-width:0.193326}
    .str9 {stroke:black;stroke-width:0.200982}
    .str2 {stroke:black;stroke-width:0.216295}
    .str8 {stroke:black;stroke-width:0.220124}
    .str0 {stroke:black;stroke-width:0.239265}
    .str1 {stroke:#191919;stroke-width:0.239265}
    .str13 {stroke:#4C4C4C;stroke-width:1.33988;stroke-dasharray:2.679767 1.339883}
    .fil20 {fill:none;fill-rule:nonzero}
    .fil12 {fill:#333333}
    .fil6 {fill:white}
    .fil11 {fill:#6E6D6D}
    .fil0 {fill:#990000}
    .fil9 {fill:#BABABC}
    .fil2 {fill:black;fill-rule:nonzero}
    .fil19 {fill:#666666;fill-rule:nonzero}
    .fil13 {fill:url(#id0)}
    .fil14 {fill:url(#id1)}
    .fil15 {fill:url(#id2)}
    .fil16 {fill:url(#id3)}
    .fil17 {fill:url(#id4)}
    .fil18 {fill:url(#id5)}
    .fil10 {fill:url(#id6)}
    .fil8 {fill:url(#id7)}
    .fil7 {fill:url(#id8);fill-rule:nonzero}
    .fil4 {fill:url(#id9);fill-rule:nonzero}
    .fil5 {fill:url(#id10);fill-rule:nonzero}
    .fil1 {fill:url(#id11);fill-rule:nonzero}
    .fil3 {fill:url(#id12);fill-rule:nonzero}
   
  </style>
  <linearGradient
   id="id0"
   gradientUnits="userSpaceOnUse"
   x1="1.27136"
   y1="39.150902"
   x2="57.7649"
   y2="41.108299">
   <stop
   offset="0"
   style="stop-color:#2F2D2A"
   id="stop3226" />
   <stop
   offset="0.0588235"
   style="stop-color:#53514C"
   id="stop3228" />
   <stop
   offset="0.74902"
   style="stop-color:#524F44"
   id="stop3230" />
   <stop
   offset="0.921569"
   style="stop-color:#37332B"
   id="stop3232" />
   <stop
   offset="1"
   style="stop-color:#312E2A"
   id="stop3234" />
  </linearGradient>
  <linearGradient
   id="id1"
   gradientUnits="userSpaceOnUse"
   x1="1.7486399"
   y1="39.916401"
   x2="57.6091"
   y2="41.4645">
   <stop
   offset="0"
   style="stop-color:#2C2923"
   id="stop3237" />
   <stop
   offset="0.0588235"
   style="stop-color:#747067"
   id="stop3239" />
   <stop
   offset="0.74902"
   style="stop-color:#716C56"
   id="stop3241" />
   <stop
   offset="0.921569"
   style="stop-color:#3C3424"
   id="stop3243" />
   <stop
   offset="1"
   style="stop-color:#302A22"
   id="stop3245" />
  </linearGradient>
  <linearGradient
   id="id2"
   gradientUnits="userSpaceOnUse"
   x1="2.2268901"
   y1="40.6772"
   x2="57.452499"
   y2="41.8251">
   <stop
   offset="0"
   style="stop-color:#29251B"
   id="stop3248" />
   <stop
   offset="0.0588235"
   style="stop-color:#958F82"
   id="stop3250" />
   <stop
   offset="0.74902"
   style="stop-color:#908967"
   id="stop3252" />
   <stop
   offset="0.921569"
   style="stop-color:#41351D"
   id="stop3254" />
   <stop
   offset="1"
   style="stop-color:#2F261A"
   id="stop3256" />
  </linearGradient>
  <linearGradient
   id="id3"
   gradientUnits="userSpaceOnUse"
   x1="2.7059901"
   y1="41.433998"
   x2="57.2953"
   y2="42.190201">
   <stop
   offset="0"
   style="stop-color:#252013"
   id="stop3259" />
   <stop
   offset="0.0588235"
   style="stop-color:#B5AD9C"
   id="stop3261" />
   <stop
   offset="0.74902"
   style="stop-color:#AFA679"
   id="stop3263" />
   <stop
   offset="0.921569"
   style="stop-color:#453515"
   id="stop3265" />
   <stop
   offset="1"
   style="stop-color:#2D2111"
   id="stop3267" />
  </linearGradient>
  <linearGradient
   id="id4"
   gradientUnits="userSpaceOnUse"
   x1="3.44187"
   y1="42.2757"
   x2="56.881001"
   y2="42.2757">
   <stop
   offset="0"
   style="stop-color:#221C0B"
   id="stop3270" />
   <stop
   offset="0.0588235"
   style="stop-color:#D6CCB7"
   id="stop3272" />
   <stop
   offset="0.74902"
   style="stop-color:#CEC38A"
   id="stop3274" />
   <stop
   offset="0.921569"
   style="stop-color:#4A360E"
   id="stop3276" />
   <stop
   offset="1"
   style="stop-color:#2C1D09"
   id="stop3278" />
  </linearGradient>
  <linearGradient
   id="id5"
   gradientUnits="userSpaceOnUse"
   x1="3.6656301"
   y1="42.598301"
   x2="56.9786"
   y2="42.598301">
   <stop
   offset="0"
   style="stop-color:#1F1804"
   id="stop3281" />
   <stop
   offset="0.0588235"
   style="stop-color:#F7ECD2"
   id="stop3283" />
   <stop
   offset="0.74902"
   style="stop-color:#EDE09C"
   id="stop3285" />
   <stop
   offset="0.921569"
   style="stop-color:#4F3707"
   id="stop3287" />
   <stop
   offset="1"
   style="stop-color:#2B1A02"
   id="stop3289" />
  </linearGradient>
  <radialGradient
   id="id6"
   gradientUnits="userSpaceOnUse"
   cx="57.883099"
   cy="65.685699"
   r="2.0836101"
   fx="57.883099"
   fy="65.685699">
   <stop
   offset="0"
   style="stop-color:white"
   id="stop3292" />
   <stop
   offset="1"
   style="stop-color:black"
   id="stop3294" />
  </radialGradient>
  <radialGradient
   id="id7"
   gradientUnits="userSpaceOnUse"
   xlink:href="#id6"
   cx="60.654202"
   cy="47.165199"
   r="37.278099"
   fx="60.654202"
   fy="47.165199">
  </radialGradient>
  <radialGradient
   id="id8"
   gradientUnits="userSpaceOnUse"
   xlink:href="#id6"
   cx="65.1054"
   cy="48.915199"
   r="41.7435"
   fx="65.1054"
   fy="48.915199">
  </radialGradient>
  <radialGradient
   id="id9"
   gradientUnits="userSpaceOnUse"
   cx="108.719"
   cy="6.2771602"
   r="6.8860402"
   fx="108.719"
   fy="6.2771602">
   <stop
   offset="0"
   style="stop-color:#CCCCCC"
   id="stop3299" />
   <stop
   offset="0.65098"
   style="stop-color:#7F7F66"
   id="stop3301" />
   <stop
   offset="1"
   style="stop-color:#333300"
   id="stop3303" />
  </radialGradient>
  <radialGradient
   id="id10"
   gradientUnits="userSpaceOnUse"
   cx="6.5513601"
   cy="4.38343"
   r="5.7036901"
   fx="6.5513601"
   fy="4.38343">
   <stop
   offset="0"
   style="stop-color:#CCCCCC"
   id="stop3306" />
   <stop
   offset="0.188235"
   style="stop-color:#7F7F66"
   id="stop3308" />
   <stop
   offset="1"
   style="stop-color:#333300"
   id="stop3310" />
  </radialGradient>
  <radialGradient
   id="id11"
   gradientUnits="userSpaceOnUse"
   xlink:href="#id10"
   cx="8.1276398"
   cy="70.248596"
   r="6.23984"
   fx="8.1276398"
   fy="70.248596">
  </radialGradient>
  <radialGradient
   id="id12"
   gradientUnits="userSpaceOnUse"
   xlink:href="#id10"
   cx="107.316"
   cy="70.7752"
   r="6.8059402"
   fx="107.316"
   fy="70.7752">
  </radialGradient>
 </defs>
 
<path
   style="fill:#80c342;fill-opacity:1;stroke:#80c342;stroke-width:0.27010319px;stroke-linecap:butt;stroke-linejoin:miter;stroke-opacity:1"
   d="m 7.8569679,1.8229196 88.0056821,0 c 3.342742,0 6.03383,2.691088 6.03383,6.0338297 l 0,88.0056517 c 0,3.342741 -2.691088,6.033829 -6.03383,6.033829 l -88.0056821,0 c -3.3427416,0 -6.0338297,-2.691088 -6.0338297,-6.033829 l 0,-88.0056517 c 0,-3.3427417 2.6910881,-6.0338297 6.0338297,-6.0338297 z"
   id="rect3494" /><g
   id="g3487"
   transform="matrix(2.5691496,0,0,8.5043097,7.2448344,-447.04555)"><path
     style="fill:#000000;fill-rule:evenodd;stroke:#000000;stroke-width:0.2183838px;stroke-linecap:butt;stroke-linejoin:miter;stroke-opacity:1"
     d="m 1.2686605,59.424637 32.1939965,0 0,4.103267 -32.1939965,0 z"
     id="rect3818" /><g
     transform="matrix(0.85509083,0,0,0.32332992,-162.74118,-56.38351)"
     style="font-size:16px;font-style:normal;font-variant:normal;font-weight:bold;font-stretch:normal;line-height:125%;letter-spacing:0px;word-spacing:0px;fill:#ffffff;fill-opacity:1;stroke:none;font-family:Arial;-inkscape-font-specification:Arial Bold"
     id="flowRoot3001"><path
       d="m 202.21875,360.21003 c 0.54686,0.5 0.98046,1.10417 1.30078,1.8125 0.3203,0.70834 0.48046,1.51563 0.48047,2.42187 -1e-5,0.8073 -0.13543,1.57552 -0.40625,2.30469 -0.27085,0.72917 -0.66147,1.35677 -1.17188,1.88281 -0.53646,0.54688 -1.16667,0.97266 -1.89062,1.27734 -0.72397,0.30469 -1.58595,0.45703 -2.58594,0.45704 -0.80729,-1e-5 -1.57031,-0.13282 -2.28906,-0.39844 -0.71875,-0.26563 -1.35157,-0.65104 -1.89844,-1.15625 -0.54167,-0.49479 -0.97135,-1.09635 -1.28906,-1.80469 -0.31771,-0.70833 -0.47656,-1.49739 -0.47656,-2.36719 0,-0.90624 0.15494,-1.72785 0.46484,-2.46484 0.3099,-0.73697 0.73568,-1.36848 1.27734,-1.89453 0.53646,-0.51562 1.17318,-0.91275 1.91016,-1.19141 0.73698,-0.27863 1.52213,-0.41796 2.35547,-0.41797 0.82812,1e-5 1.60546,0.13543 2.33203,0.40625 0.72655,0.27085 1.35546,0.64845 1.88672,1.13282 z m -2.00781,7.92968 c 0.23436,-0.47395 0.40363,-1.01041 0.50781,-1.60937 0.10416,-0.59896 0.15624,-1.27604 0.15625,-2.03125 -1e-5,-0.64062 -0.0456,-1.26432 -0.13672,-1.8711 -0.0911,-0.60676 -0.2461,-1.14712 -0.46484,-1.62109 -0.22397,-0.47395 -0.52084,-0.85416 -0.89063,-1.14062 -0.3698,-0.28645 -0.83073,-0.42968 -1.38281,-0.42969 -0.94271,10e-6 -1.65886,0.44662 -2.14844,1.33984 -0.48958,0.89324 -0.73438,2.15496 -0.73437,3.78516 -1e-5,0.69271 0.0534,1.34636 0.16015,1.96094 0.10677,0.61458 0.27474,1.15104 0.50391,1.60937 0.23437,0.46354 0.53125,0.82422 0.89062,1.08203 0.35937,0.25781 0.80208,0.38672 1.32813,0.38672 0.51562,0 0.95833,-0.13021 1.32812,-0.39062 0.36979,-0.26042 0.66406,-0.61719 0.88282,-1.07032 z"
       style="font-family:Georgia;-inkscape-font-specification:Georgia Bold"
       id="path3998" /><path
       d="m 210.91406,370.35846 c -0.8125,0 -1.57292,-0.13151 -2.28125,-0.39453 -0.70833,-0.26302 -1.32552,-0.64453 -1.85156,-1.14453 -0.51563,-0.48958 -0.92188,-1.09505 -1.21875,-1.81641 -0.29688,-0.72135 -0.44531,-1.51431 -0.44531,-2.3789 0,-0.85937 0.14974,-1.65494 0.44922,-2.38672 0.29947,-0.73176 0.72005,-1.36588 1.26171,-1.90234 0.53125,-0.52604 1.16927,-0.93359 1.91407,-1.22266 0.74478,-0.28905 1.54166,-0.43358 2.39062,-0.43359 0.61458,10e-6 1.17447,0.0742 1.67969,0.22265 0.5052,0.14845 0.93228,0.31642 1.28125,0.50391 l 0.48437,-0.42969 0.67969,0 0.0703,4.04688 -0.6875,0 c -0.39063,-1.23437 -0.85938,-2.14062 -1.40625,-2.71875 -0.54688,-0.57812 -1.21354,-0.86718 -2,-0.86719 -0.97917,10e-6 -1.72396,0.431 -2.23437,1.29297 -0.51042,0.86198 -0.76563,2.07162 -0.76563,3.6289 0,0.88022 0.0872,1.63152 0.26172,2.25391 0.17448,0.6224 0.40234,1.1237 0.6836,1.50391 0.30208,0.39583 0.65885,0.68619 1.07031,0.87109 0.41145,0.1849 0.86718,0.27734 1.36719,0.27734 0.72916,0 1.3789,-0.19791 1.94922,-0.59375 0.5703,-0.39583 1.08983,-0.99479 1.55859,-1.79687 l 0.67187,0.40625 c -0.22396,0.45833 -0.47917,0.86849 -0.76562,1.23047 -0.28647,0.36198 -0.6172,0.67317 -0.99219,0.93359 -0.41146,0.28646 -0.86589,0.51042 -1.36328,0.67188 -0.4974,0.16145 -1.08464,0.24218 -1.76172,0.24218 z"
       style="font-family:Georgia;-inkscape-font-specification:Georgia Bold"
       id="path4000" /><path
       d="m 229.26562,370.06159 -4.25,0 c -0.73438,-1.125 -1.34505,-2.02083 -1.83203,-2.6875 -0.48698,-0.66667 -1.09245,-1.4375 -1.8164,-2.3125 l -0.42969,0 0,3.36719 c 0,0.1875 0.0351,0.34635 0.10547,0.47656 0.0703,0.13021 0.20442,0.23958 0.40234,0.32812 0.099,0.0417 0.2539,0.0846 0.46485,0.12891 0.21093,0.0443 0.39192,0.0742 0.54296,0.0898 l 0,0.60938 -5.91406,0 0,-0.60938 c 0.15104,-0.0156 0.35026,-0.0378 0.59766,-0.0664 0.24739,-0.0286 0.42317,-0.0638 0.52734,-0.10547 0.19792,-0.0833 0.33073,-0.1888 0.39844,-0.31641 0.0677,-0.1276 0.10156,-0.29036 0.10156,-0.48828 l 0,-7.82031 c 0,-0.18749 -0.0286,-0.34374 -0.0859,-0.46875 -0.0573,-0.12499 -0.19531,-0.23437 -0.41406,-0.32813 -0.16667,-0.0677 -0.36328,-0.12499 -0.58984,-0.17187 -0.22656,-0.0469 -0.40495,-0.0807 -0.53516,-0.10156 l 0,-0.60938 6.21875,0 c 1.39062,1e-5 2.44661,0.21746 3.16797,0.65234 0.72134,0.43491 1.08202,1.09246 1.08203,1.97266 -1e-5,0.77605 -0.22266,1.39975 -0.66797,1.87109 -0.44532,0.47136 -1.1237,0.83985 -2.03515,1.10547 0.35416,0.45834 0.76692,0.98959 1.23828,1.59375 0.47134,0.60417 0.96223,1.22136 1.47265,1.85157 0.16145,0.20312 0.3815,0.45182 0.66016,0.74609 0.27864,0.29427 0.52473,0.47526 0.73828,0.54297 0.11978,0.0365 0.27213,0.0677 0.45703,0.0937 0.18489,0.026 0.3164,0.0417 0.39453,0.0469 z m -5.32031,-8.24219 c -1e-5,-0.73957 -0.20704,-1.27994 -0.62109,-1.62109 -0.41407,-0.34114 -1.00391,-0.51171 -1.76953,-0.51172 l -0.61719,0 0,4.64062 0.59375,0 c 0.76562,1e-5 1.35937,-0.20051 1.78125,-0.60156 0.42187,-0.40103 0.6328,-1.03645 0.63281,-1.90625 z"
       style="font-family:Georgia;-inkscape-font-specification:Georgia Bold"
       id="path4002" /></g></g><g
   transform="matrix(0.39306363,0,0,0.36354329,3.5071713,-6.8785326)"
   style="font-size:16px;font-style:normal;font-variant:normal;font-weight:bold;font-stretch:normal;line-height:125%;letter-spacing:0px;word-spacing:0px;fill:#ffffff;fill-opacity:1;stroke:#000000;stroke-width:2.8581183;stroke-linecap:butt;stroke-linejoin:bevel;stroke-miterlimit:4;font-family:Georgia;-inkscape-font-specification:Georgia Bold"
   id="flowRoot3401"><path
     d="m 109.03125,56.827726 c 4.92177,4.500084 8.82411,9.937579 11.70703,16.3125 2.8827,6.375066 4.32411,13.640684 4.32422,21.796875 -1.1e-4,11.578159 -2.89464,21.750029 -8.68359,30.515629 -5.78916,8.76563 -13.98056,15.07031 -24.574223,18.91406 0.140546,5.57812 1.828044,10.40624 5.0625,14.48437 3.234283,4.07811 7.054593,6.11717 11.460943,6.11719 2.71865,-2e-5 5.09755,-0.16408 7.13671,-0.49219 2.03896,-0.32814 3.8788,-0.70314 5.51954,-1.125 l 0,6.1875 c -2.67199,1.12498 -6.63292,2.2617 -11.88282,3.41016 -5.25009,1.14841 -10.757896,1.72263 -16.523435,1.72266 -7.875073,-3e-5 -14.355535,-2.3555 -19.441406,-7.06641 -5.085994,-4.71096 -7.933647,-11.28517 -8.542969,-19.72266 -6.656296,-0.65625 -12.84379,-2.29687 -18.5625,-4.92187 -5.718778,-2.625 -10.757836,-6.16406 -15.117188,-10.61719 -4.265639,-4.40623 -7.652355,-9.63279 -10.160156,-15.67969 -2.507818,-6.04684 -3.761723,-12.70308 -3.761719,-19.968747 -4e-6,-8.156193 1.394525,-15.550717 4.183594,-22.183593 2.789051,-6.632735 6.621078,-12.316323 11.496094,-17.050782 4.828099,-4.640532 10.558563,-8.214747 17.191406,-10.722656 6.632768,-2.507711 13.699167,-3.761616 21.199219,-3.761719 7.453058,1.03e-4 14.449145,1.218852 20.988281,3.65625 6.538976,2.437597 12.199129,5.836031 16.980469,10.195313 z M 90.960937,128.19491 c 2.109294,-4.2656 3.63273,-9.09372 4.570313,-14.48437 0.937416,-5.39059 1.406165,-11.48433 1.40625,-18.281252 C 96.937415,89.663719 96.527259,84.050444 95.707031,78.589445 94.886636,73.128579 93.492106,68.265303 91.523437,63.999601 89.507735,59.734062 86.835863,56.31219 83.507812,53.733976 80.179619,51.155945 76.031186,49.866884 71.0625,49.866788 c -8.484426,9.6e-5 -14.929732,4.019623 -19.335938,12.058594 -4.406285,8.039138 -6.609408,19.394595 -6.609375,34.066406 -3.3e-5,6.234422 0.480436,12.117222 1.441407,17.648442 0.960902,5.53127 2.472619,10.35939 4.535156,14.48437 2.109334,4.17189 4.781206,7.41798 8.015625,9.73828 3.234325,2.32032 7.218696,3.48047 11.953125,3.48047 4.640561,0 8.624932,-1.17187 11.953125,-3.51562 3.328051,-2.34374 5.976486,-5.55468 7.945312,-9.63282 z"
     style="font-size:144px;fill:#ffffff;stroke:#000000"
     id="path3994" /></g><g
   transform="matrix(0.39620119,0,0,0.36352854,50.111514,-7.4657886)"
   style="font-size:16px;font-style:normal;font-variant:normal;font-weight:bold;font-stretch:normal;line-height:125%;letter-spacing:0px;word-spacing:0px;fill:#000000;fill-opacity:1;stroke:#ffffff;stroke-width:2.84683657;stroke-linecap:butt;stroke-linejoin:bevel;stroke-miterlimit:4;font-family:Georgia;-inkscape-font-specification:Georgia Bold"
   id="flowRoot3196"><path
     d="m 109.59375,74.265226 -5.41406,0 c -1.45322,-4.26555 -3.78525,-8.835858 -6.996096,-13.710938 -3.21102,-4.87491 -6.175861,-7.499907 -8.894532,-7.875 -1.500074,-0.187407 -3.351635,-0.351469 -5.554687,-0.492187 -2.203194,-0.140532 -4.101629,-0.210844 -5.695313,-0.210938 l -3.304687,0 0,78.257817 c -6.2e-5,1.68751 0.304625,3.17579 0.914062,4.46484 0.609312,1.28907 1.804624,2.3086 3.585938,3.05859 1.078058,0.42189 2.753837,0.85548 5.027344,1.30078 2.273364,0.44532 4.206956,0.76173 5.800781,0.94922 l 0,5.48438 -55.617188,0 0,-5.48438 c 1.359353,-0.14062 3.269507,-0.33983 5.730469,-0.59765 2.460908,-0.25781 4.136688,-0.57422 5.027344,-0.94922 1.828091,-0.74999 3.04684,-1.75781 3.65625,-3.02344 0.609339,-1.26561 0.914026,-2.76561 0.914062,-4.5 l 0,-78.960937 -3.304687,0 c -1.593782,9.4e-5 -3.492217,0.07041 -5.695313,0.210938 -2.20315,0.140718 -4.054711,0.30478 -5.554687,0.492187 -2.71877,0.375093 -5.68361,3.00009 -8.894531,7.875 -3.210948,4.87508 -5.542977,9.445388 -6.996094,13.710938 l -5.414062,0 0,-28.546875 96.679687,0 z"
     style="font-size:144px;stroke:#ffffff"
     id="path3991" /></g></svg>